<svg xmlns="http://www.w3.org/2000/svg" viewBox="0 0 1100 520" role="img" aria-labelledby="title desc">
  <title id="title">A piece of the likes graph</title>
  <desc id="desc">A piece of the real MovieLens graph: 18 users drawn as green dots, 22 films drawn as boxes, and a line for every like. Our horror fan is circled. Users who liked the same films end up close to each other.</desc>
  <defs>
    <filter id="shadow" x="-10%" y="-10%" width="120%" height="130%">
      <feDropShadow dx="0" dy="12" stdDeviation="16" flood-color="#183a32" flood-opacity="0.12"/>
    </filter>
  </defs>
  <rect width="1100" height="520" rx="24" fill="#eaf1ed"/>
  <rect x="24" y="24" width="1052" height="472" rx="20" fill="#ffffff" filter="url(#shadow)"/>
  <g font-family="Avenir Next, Trebuchet MS, sans-serif">
    <text x="58" y="68" fill="#173b36" font-size="23" font-weight="700">A piece of the likes graph</text>
    <text x="58" y="92" fill="#6b7c76" font-size="13">18 users and 22 films of MovieLens, and a line for every like. The whole graph has 943 users, 1,682 films and 50,232 lines</text>
    <g stroke="#c9d8d1" stroke-width="1.5">
      <line x1="672" y1="230" x2="491" y2="340"/>
      <line x1="672" y1="230" x2="695" y2="261"/>
      <line x1="672" y1="230" x2="717" y2="308"/>
      <line x1="672" y1="230" x2="620" y2="196"/>
      <line x1="672" y1="230" x2="563" y2="207"/>
      <line x1="611" y1="341" x2="491" y2="340"/>
      <line x1="611" y1="341" x2="358" y2="401"/>
      <line x1="611" y1="341" x2="513" y2="263"/>
      <line x1="611" y1="341" x2="695" y2="261"/>
      <line x1="611" y1="341" x2="586" y2="262"/>
      <line x1="611" y1="341" x2="717" y2="308"/>
      <line x1="474" y1="198" x2="268" y2="222"/>
      <line x1="474" y1="198" x2="294" y2="267"/>
      <line x1="474" y1="198" x2="348" y2="253"/>
      <line x1="474" y1="198" x2="513" y2="263"/>
      <line x1="474" y1="198" x2="695" y2="261"/>
      <line x1="474" y1="198" x2="620" y2="196"/>
      <line x1="474" y1="198" x2="563" y2="207"/>
      <line x1="474" y1="198" x2="382" y2="158"/>
      <line x1="474" y1="198" x2="431" y2="136"/>
      <line x1="497" y1="455" x2="491" y2="340"/>
      <line x1="497" y1="455" x2="358" y2="401"/>
      <line x1="497" y1="455" x2="468" y2="397"/>
      <line x1="497" y1="455" x2="531" y2="391"/>
      <line x1="621" y1="300" x2="513" y2="263"/>
      <line x1="621" y1="300" x2="695" y2="261"/>
      <line x1="621" y1="300" x2="586" y2="262"/>
      <line x1="621" y1="300" x2="717" y2="308"/>
      <line x1="621" y1="300" x2="563" y2="207"/>
      <line x1="621" y1="300" x2="435" y2="355"/>
      <line x1="621" y1="300" x2="531" y2="391"/>
      <line x1="750" y1="232" x2="695" y2="261"/>
      <line x1="750" y1="232" x2="586" y2="262"/>
      <line x1="750" y1="232" x2="717" y2="308"/>
      <line x1="750" y1="232" x2="620" y2="196"/>
      <line x1="411" y1="313" x2="294" y2="267"/>
      <line x1="411" y1="313" x2="348" y2="253"/>
      <line x1="411" y1="313" x2="586" y2="262"/>
      <line x1="411" y1="313" x2="468" y2="397"/>
      <line x1="561" y1="319" x2="491" y2="340"/>
      <line x1="561" y1="319" x2="513" y2="263"/>
      <line x1="561" y1="319" x2="717" y2="308"/>
      <line x1="561" y1="319" x2="620" y2="196"/>
      <line x1="561" y1="319" x2="563" y2="207"/>
      <line x1="561" y1="319" x2="435" y2="355"/>
      <line x1="561" y1="319" x2="468" y2="397"/>
      <line x1="561" y1="319" x2="531" y2="391"/>
      <line x1="412" y1="427" x2="491" y2="340"/>
      <line x1="412" y1="427" x2="358" y2="401"/>
      <line x1="412" y1="427" x2="468" y2="397"/>
      <line x1="412" y1="427" x2="531" y2="391"/>
      <line x1="412" y1="427" x2="289" y2="353"/>
      <line x1="249" y1="302" x2="217" y2="225"/>
      <line x1="249" y1="302" x2="294" y2="267"/>
      <line x1="249" y1="302" x2="348" y2="253"/>
      <line x1="249" y1="302" x2="435" y2="355"/>
      <line x1="249" y1="302" x2="188" y2="171"/>
      <line x1="249" y1="302" x2="289" y2="353"/>
      <line x1="265" y1="197" x2="217" y2="225"/>
      <line x1="265" y1="197" x2="268" y2="222"/>
      <line x1="265" y1="197" x2="294" y2="267"/>
      <line x1="265" y1="197" x2="358" y2="401"/>
      <line x1="265" y1="197" x2="348" y2="253"/>
      <line x1="265" y1="197" x2="215" y2="136"/>
      <line x1="265" y1="197" x2="318" y2="130"/>
      <line x1="265" y1="197" x2="382" y2="158"/>
      <line x1="265" y1="197" x2="188" y2="171"/>
      <line x1="342" y1="189" x2="217" y2="225"/>
      <line x1="342" y1="189" x2="268" y2="222"/>
      <line x1="342" y1="189" x2="294" y2="267"/>
      <line x1="342" y1="189" x2="348" y2="253"/>
      <line x1="342" y1="189" x2="586" y2="262"/>
      <line x1="342" y1="189" x2="318" y2="130"/>
      <line x1="342" y1="189" x2="563" y2="207"/>
      <line x1="342" y1="189" x2="382" y2="158"/>
      <line x1="342" y1="189" x2="188" y2="171"/>
      <line x1="342" y1="189" x2="431" y2="136"/>
      <line x1="342" y1="189" x2="135" y2="235"/>
      <line x1="178" y1="302" x2="217" y2="225"/>
      <line x1="178" y1="302" x2="268" y2="222"/>
      <line x1="178" y1="302" x2="294" y2="267"/>
      <line x1="178" y1="302" x2="358" y2="401"/>
      <line x1="178" y1="302" x2="135" y2="235"/>
      <line x1="400" y1="239" x2="217" y2="225"/>
      <line x1="400" y1="239" x2="491" y2="340"/>
      <line x1="400" y1="239" x2="268" y2="222"/>
      <line x1="400" y1="239" x2="513" y2="263"/>
      <line x1="400" y1="239" x2="215" y2="136"/>
      <line x1="400" y1="239" x2="620" y2="196"/>
      <line x1="400" y1="239" x2="318" y2="130"/>
      <line x1="400" y1="239" x2="435" y2="355"/>
      <line x1="400" y1="239" x2="468" y2="397"/>
      <line x1="400" y1="239" x2="382" y2="158"/>
      <line x1="400" y1="239" x2="289" y2="353"/>
      <line x1="400" y1="239" x2="431" y2="136"/>
      <line x1="261" y1="144" x2="217" y2="225"/>
      <line x1="261" y1="144" x2="491" y2="340"/>
      <line x1="261" y1="144" x2="215" y2="136"/>
      <line x1="261" y1="144" x2="318" y2="130"/>
      <line x1="261" y1="144" x2="188" y2="171"/>
      <line x1="325" y1="226" x2="217" y2="225"/>
      <line x1="325" y1="226" x2="268" y2="222"/>
      <line x1="325" y1="226" x2="294" y2="267"/>
      <line x1="325" y1="226" x2="348" y2="253"/>
      <line x1="325" y1="226" x2="513" y2="263"/>
      <line x1="325" y1="226" x2="215" y2="136"/>
      <line x1="325" y1="226" x2="318" y2="130"/>
      <line x1="325" y1="226" x2="531" y2="391"/>
      <line x1="325" y1="226" x2="382" y2="158"/>
      <line x1="325" y1="226" x2="289" y2="353"/>
      <line x1="325" y1="226" x2="431" y2="136"/>
      <line x1="325" y1="226" x2="135" y2="235"/>
      <line x1="398" y1="470" x2="491" y2="340"/>
      <line x1="398" y1="470" x2="358" y2="401"/>
      <line x1="398" y1="470" x2="435" y2="355"/>
      <line x1="110" y1="179" x2="217" y2="225"/>
      <line x1="110" y1="179" x2="268" y2="222"/>
      <line x1="110" y1="179" x2="215" y2="136"/>
      <line x1="110" y1="179" x2="135" y2="235"/>
    </g>
    <rect x="208" y="216" width="18" height="18" rx="4" fill="#fbefd0" stroke="#f0bd54" stroke-width="2"/>
    <rect x="482" y="331" width="18" height="18" rx="4" fill="#f8e0d4" stroke="#e76f51" stroke-width="2"/>
    <rect x="259" y="213" width="18" height="18" rx="4" fill="#fbefd0" stroke="#f0bd54" stroke-width="2"/>
    <rect x="285" y="258" width="18" height="18" rx="4" fill="#f8faf8" stroke="#82908a" stroke-width="2"/>
    <rect x="349" y="392" width="18" height="18" rx="4" fill="#f8faf8" stroke="#82908a" stroke-width="2"/>
    <rect x="339" y="244" width="18" height="18" rx="4" fill="#f8faf8" stroke="#82908a" stroke-width="2"/>
    <rect x="504" y="254" width="18" height="18" rx="4" fill="#f8e0d4" stroke="#e76f51" stroke-width="2"/>
    <rect x="686" y="252" width="18" height="18" rx="4" fill="#f8e0d4" stroke="#e76f51" stroke-width="2"/>
    <rect x="577" y="253" width="18" height="18" rx="4" fill="#f8e0d4" stroke="#e76f51" stroke-width="2"/>
    <rect x="708" y="299" width="18" height="18" rx="4" fill="#f8e0d4" stroke="#e76f51" stroke-width="2"/>
    <rect x="206" y="127" width="18" height="18" rx="4" fill="#fbefd0" stroke="#f0bd54" stroke-width="2"/>
    <rect x="611" y="187" width="18" height="18" rx="4" fill="#f8e0d4" stroke="#e76f51" stroke-width="2"/>
    <rect x="309" y="121" width="18" height="18" rx="4" fill="#f8faf8" stroke="#82908a" stroke-width="2"/>
    <rect x="554" y="198" width="18" height="18" rx="4" fill="#f8faf8" stroke="#82908a" stroke-width="2"/>
    <rect x="426" y="346" width="18" height="18" rx="4" fill="#f8faf8" stroke="#82908a" stroke-width="2"/>
    <rect x="459" y="388" width="18" height="18" rx="4" fill="#f8faf8" stroke="#82908a" stroke-width="2"/>
    <rect x="522" y="382" width="18" height="18" rx="4" fill="#f8faf8" stroke="#82908a" stroke-width="2"/>
    <rect x="373" y="149" width="18" height="18" rx="4" fill="#f8faf8" stroke="#82908a" stroke-width="2"/>
    <rect x="179" y="162" width="18" height="18" rx="4" fill="#f8faf8" stroke="#82908a" stroke-width="2"/>
    <rect x="280" y="344" width="18" height="18" rx="4" fill="#f8faf8" stroke="#82908a" stroke-width="2"/>
    <rect x="422" y="127" width="18" height="18" rx="4" fill="#fbefd0" stroke="#f0bd54" stroke-width="2"/>
    <rect x="126" y="226" width="18" height="18" rx="4" fill="#f8faf8" stroke="#82908a" stroke-width="2"/>
    <circle cx="672" cy="230" r="11" fill="#357b6c" stroke="#173b36" stroke-width="3"/>
    <circle cx="611" cy="341" r="8" fill="#357b6c"/>
    <circle cx="474" cy="198" r="8" fill="#357b6c"/>
    <circle cx="497" cy="455" r="8" fill="#357b6c"/>
    <circle cx="621" cy="300" r="8" fill="#357b6c"/>
    <circle cx="750" cy="232" r="8" fill="#357b6c"/>
    <circle cx="411" cy="313" r="8" fill="#357b6c"/>
    <circle cx="561" cy="319" r="8" fill="#357b6c"/>
    <circle cx="412" cy="427" r="8" fill="#357b6c"/>
    <circle cx="249" cy="302" r="8" fill="#357b6c"/>
    <circle cx="265" cy="197" r="8" fill="#357b6c"/>
    <circle cx="342" cy="189" r="8" fill="#357b6c"/>
    <circle cx="178" cy="302" r="8" fill="#357b6c"/>
    <circle cx="400" cy="239" r="8" fill="#357b6c"/>
    <circle cx="261" cy="144" r="8" fill="#357b6c"/>
    <circle cx="325" cy="226" r="8" fill="#357b6c"/>
    <circle cx="398" cy="470" r="8" fill="#357b6c"/>
    <circle cx="110" cy="179" r="8" fill="#357b6c"/>
    <text x="697" y="208" fill="#173b36" font-size="15" font-weight="700" text-anchor="middle" stroke="#ffffff" stroke-width="4" paint-order="stroke">Our horror fan</text>
    <g font-size="14" fill="#6b7c76">
      <circle cx="870" cy="160" r="8" fill="#357b6c"/>
      <text x="888" y="165">a user</text>
      <rect x="861" y="186" width="18" height="18" rx="4" fill="#f8e0d4" stroke="#e76f51" stroke-width="2"/>
      <text x="888" y="200">a horror film</text>
      <rect x="861" y="221" width="18" height="18" rx="4" fill="#fbefd0" stroke="#f0bd54" stroke-width="2"/>
      <text x="888" y="235">a children's film</text>
      <rect x="861" y="256" width="18" height="18" rx="4" fill="#f8faf8" stroke="#82908a" stroke-width="2"/>
      <text x="888" y="270">another film</text>
      <line x1="861" y1="300" x2="879" y2="300" stroke="#c9d8d1" stroke-width="2"/>
      <text x="888" y="305">a like</text>
    </g>
  </g>
</svg>
